<?xml version="1.0" encoding="UTF-8" standalone="no"?>
<svg
   version="1.1"
   id="svg1"
   x="0px"
   y="0px"
   width="236.89998"
   height="260.25"
   viewBox="0 0 236.89999 260.24998"
   xml:space="preserve"
   xmlns="http://www.w3.org/2000/svg"
   xmlns:svg="http://www.w3.org/2000/svg"><defs
   id="defs8" />
<style
   type="text/css"
   id="style1">
	.st0{fill:url(#path1_1_);}
</style>
<g
   id="g8"
   transform="matrix(0.5,0,0,0.5,-25.7,-52.7)">
	<g
   id="layer1">
		<g
   id="g2">
			<linearGradient
   id="path1_1_"
   gradientUnits="userSpaceOnUse"
   x1="288.23792"
   y1="212.7429"
   x2="288.23792"
   y2="624.14832">
				<stop
   offset="0"
   style="stop-color:#FF0101"
   id="stop1" />
				<stop
   offset="9.479019e-02"
   style="stop-color:#FF0701"
   id="stop2" />
				<stop
   offset="0.2197"
   style="stop-color:#FF1701"
   id="stop3" />
				<stop
   offset="0.3615"
   style="stop-color:#FF3301"
   id="stop4" />
				<stop
   offset="0.5158"
   style="stop-color:#FF5901"
   id="stop5" />
				<stop
   offset="0.6801"
   style="stop-color:#FF8A00"
   id="stop6" />
				<stop
   offset="0.8501"
   style="stop-color:#FFC500"
   id="stop7" />
				<stop
   offset="1"
   style="stop-color:#FFFF00"
   id="stop8" />
			</linearGradient>
			<path
   id="path1"
   class="st0"
   d="m 288,337.9 c -6.8,8.5 6.1,47 -14,72.1 -0.6,0.8 -1.2,1.6 -1.8,2.4 -1.1,1.4 2.6,-16.3 -12.3,-14.3 -8.1,1.1 -3,-21.4 -3,-21.4 0,0 -15.7,25.3 -3.5,31.5 5.9,3 8,22.5 7.3,24.2 -0.4,0.9 -0.7,1.7 -1,2.6 -11.8,31.7 0.1,58.2 -0.6,57.9 -36.8,-17.6 -41.4,-59.7 -43,-56 -9.2,21.5 -12.1,39.7 -11,54.9 0.2,2.2 0.4,4.3 0.7,6.3 0.2,1.3 -1.9,-7.3 -10,-5.9 -6.1,1 -12.9,-15.5 -12.9,-15.5 0,0 -6.3,27.2 7.2,33.3 11.2,5.1 21.4,7.4 22,8.8 0.5,1.1 1,2.1 1.5,3.1 16.2,30.7 49.5,41.2 49,41.3 -17.8,3.5 -36,-3.2 -51.8,-12.6 -27.5,-16.4 -38.6,-33.7 -38.6,-33.7 0,0 9.7,36.5 27.3,58 17.6,21.5 39.8,41.8 61.7,51 -52.5,-4.9 -93,-28.4 -116.1,-64.7 -0.9,-1.5 -1.8,-2.9 -2.7,-4.4 -3.1,-5.3 -37.2,-11.7 -54.6,-48.5 C 74.7,481 51.4,387.8 51.4,387.8 c 0,0 19.4,40.7 43.3,47.1 20.7,5.5 29.9,22.2 32.1,10.6 0.3,-1.7 0.7,-3.5 1.1,-5.2 2.3,-10.9 5.6,-22.1 9.8,-33.5 1,-2.6 2,-5.2 3,-7.9 2.2,-5.5 -21.8,-31.1 -13.8,-59.4 10.5,-37 -19,-82.6 -19,-82.6 0,0 38.2,0.1 44.2,38.8 3.4,21.8 28.8,30.1 33.2,24 1.8,-2.5 3.7,-5.1 5.6,-7.6 1,-1.3 2,-2.7 3,-4 2.3,-3 -17.1,-43 -1.3,-65.4 17.9,-25.4 3.3,-42.4 3.3,-42.4 0,0 38.1,26.2 29.9,46.7 -15.1,37.5 1,22.5 4.5,18.9 1.1,-1.2 2.3,-2.4 3.4,-3.6 12.9,-13.3 27,-26.7 42.3,-40.2 0.5,-0.4 1,-0.8 1.4,-1.2 1.3,-1.2 8.6,-15.2 10.5,-35.8 1.9,-20.6 -19.9,-33.9 -18.1,-49.5 1.1,-9.3 21.4,-30.2 21.4,-30.2 0,0 -9.2,19.1 -1,29.1 8.5,10.5 37,19.9 39.2,35.2 3.7,26.3 -23.8,40.6 -12.6,40.4 2.4,-0.1 4.9,-0.1 7.3,-0.1 122.6,0.1 191.8,68.3 197.9,109.9 -48.3,-58.7 -112,-88.8 -189,-72 9.8,8.9 18.9,18 27.5,27.1 1.1,1.2 2.3,2.4 3.4,3.6 1.1,1.2 3.7,-11.2 12.1,-11.2 5.8,0 7.3,-17.1 7.3,-17.1 0,0 14.4,24.9 3.4,30.6 -8.6,4.5 -10.5,11.6 -9.5,12.9 1.4,1.7 2.8,3.4 4.2,5.1 9.3,11.5 17.7,23.1 25.1,34.6 0.8,1.3 1.7,2.6 2.5,3.9 3.6,5.8 11.3,-9.7 30.7,-11.3 22.5,-1.9 21.6,-35.8 21.6,-35.8 0,0 17.1,48.8 -0.8,84 -8.6,17 -19.1,31.4 -17.6,36.2 0.4,1.3 0.8,2.5 1.1,3.8 2.7,9.3 4.8,18.4 6.3,27.4 0.2,1.2 0.4,2.4 0.6,3.6 0.9,6.3 22.1,11.2 36,4.6 13.9,-6.6 38.3,-30.5 38.3,-30.5 0,0 -20.5,76.7 -37.2,94.6 -18.4,19.7 -48.9,31.8 -54.3,41.3 -0.9,1.6 -1.9,3.2 -2.8,4.8 -22.9,36.8 -62.5,61.4 -115.6,65.8 41,-19.8 64,-45.1 72,-72 1.3,-4.2 -10.8,16.2 -44.8,1.8 -1.2,-0.5 9.4,-1.2 20.6,-15.7 2.2,-2.9 20.7,4.2 26.4,-13.5 1.8,-5.7 3.2,-24.4 3.2,-24.4 0,0 -0.5,7.9 -6.4,7.9 -4.6,0 -13.1,12.4 -12.6,11.1 0.4,-0.8 0.7,-1.7 1.1,-2.6 2.5,-6.3 4.7,-13.7 6.6,-22.4 6.1,-27.6 0.2,-38.9 -5.1,-42.1 -5,-3.1 -7.1,-13 -7.1,-13 0,0 -3.7,24.5 -13.1,26.3 -19.4,3.6 -38.9,21.7 -38.9,21.7 0,0 25.4,-40.2 25.8,-72.1 0.2,-29.1 -22.6,-48.7 -55,-79 z"
   style="fill:url(#path1_1_)" />
		</g>
	</g>
</g>
</svg>
