<?xml version="1.0" encoding="UTF-8" standalone="no"?>
<svg
   version="1.1"
   id="svg1"
   x="0px"
   y="0px"
   width="232.94832"
   height="260.24997"
   viewBox="0 0 232.94832 260.24996"
   xml:space="preserve"
   xmlns="http://www.w3.org/2000/svg"
   xmlns:svg="http://www.w3.org/2000/svg"><defs
   id="defs8" />
<style
   type="text/css"
   id="style1">
	.st0{fill:url(#path1_1_);}
</style>
<g
   id="g8"
   transform="translate(-60.778373,-105.4)">
	<g
   id="layer1">
		<g
   id="g2">
			<linearGradient
   id="path1_1_"
   gradientUnits="userSpaceOnUse"
   x1="288.23792"
   y1="212.7429"
   x2="288.23792"
   y2="624.14832"
   gradientTransform="matrix(0.5,0,0,0.5,30.389187,52.7)">
				<stop
   offset="0"
   style="stop-color:#FF0101"
   id="stop1" />
				<stop
   offset="9.479019e-02"
   style="stop-color:#FF0701"
   id="stop2" />
				<stop
   offset="0.2197"
   style="stop-color:#FF1701"
   id="stop3" />
				<stop
   offset="0.3615"
   style="stop-color:#FF3301"
   id="stop4" />
				<stop
   offset="0.5158"
   style="stop-color:#FF5901"
   id="stop5" />
				<stop
   offset="0.6801"
   style="stop-color:#FF8A00"
   id="stop6" />
				<stop
   offset="0.8501"
   style="stop-color:#FFC500"
   id="stop7" />
				<stop
   offset="1"
   style="stop-color:#FFFF00"
   id="stop8" />
			</linearGradient>
			<path
   id="path1"
   class="st0"
   d="m 174.38919,221.65 c -3.4,4.25 3.05,23.5 -7,36.05 l -0.9,1.2 c -0.55,0.7 1.3,-8.15 -6.15,-7.15 -4.05,0.55 -1.5,-10.7 -1.5,-10.7 0,0 -7.85,12.65 -1.75,15.75 2.95,1.5 4,11.25 3.65,12.1 -0.2,0.45 -0.35,0.85 -0.5,1.3 -6.3425,12.01498 -2.66002,18.77245 -2.66002,18.77245 0,0 -8.75243,4.66518 -19.13998,-17.82245 -4.6,10.75 -6.05,19.85 -5.5,27.45 0.1,1.1 0.2,2.15 0.35,3.15 0.1,0.65 -1.68751,-5.56751 -5.73751,-4.86751 -3.05,0.5 -5.71249,-5.83249 -5.71249,-5.83249 0,0 -0.065,12.31295 3.6,16.65 2.54896,3.01635 10.7,3.7 11,4.4 0.25,0.55 0.5,1.05 0.75,1.55 8.1,15.35 24.75,20.6 24.5,20.65 -8.9,1.75 -18,-1.6 -25.9,-6.3 -13.75,-8.2 -19.3,-16.85 -19.3,-16.85 0,0 4.85,18.25 13.65,29 8.8,10.75 19.9,20.9 30.85,25.5 -26.25,-2.45 -46.5,-14.2 -58.05,-32.35 -0.45,-0.75 -0.9,-1.45 -1.35,-2.2 -1.55,-2.65 -18.600003,-5.85 -27.300003,-24.25 -14.810044,-27.51507 -13.479974,-59.06999 -13.479974,-59.06999 0,0 4.968759,18.46962 14.864963,20.45248 13.515781,2.70809 17.015011,13.01751 18.115011,7.21751 0.15,-0.85 0.35,-1.75 0.55,-2.6 1.15,-5.45 2.8,-11.05 4.9,-16.75 0.5,-1.3 1.000003,-2.6 1.500003,-3.95 -21.957956,-15.30953 -2.676343,-52.8864 -16.400003,-71 0,0 15.873813,13.63896 20.329993,22.79252 7.30106,14.99731 16.40184,13.00981 18.37001,8.60748 0.9,-1.25 1.85,-2.55 2.8,-3.8 0.5,-0.65 1,-1.35 1.5,-2 1.15,-1.5 -8.91286,-21.76495 -0.65,-32.7 7.47751,-9.89571 0.0275,-17.80748 0.0275,-17.80748 0,0 9.51542,0.17212 14.95,11.25494 7.11514,14.51002 -0.96698,23.37586 5.57251,16.35254 6.45,-6.65 13.5,-13.35 21.15,-20.1 0.25,-0.2 0.5,-0.4 0.7,-0.6 0.65,-0.6 4.3,-7.6 5.25,-17.9 0.95,-10.3 -9.95,-16.95 -9.05,-24.75 0.55,-4.65 10.7,-15.1 10.7,-15.1 0,0 -4.6,9.55 -0.5,14.55 4.25,5.25 18.5,9.95 19.6,17.6 1.85,13.15 -11.9,20.3 -6.3,20.2 1.2,-0.05 2.45,-0.05 3.65,-0.05 61.3,0.05 95.9,34.15 98.95,54.95 -24.15,-29.35 -56,-44.4 -94.5,-36 4.9,4.45 9.45,9 13.75,13.55 0.55,0.6 1.15,1.2 1.7,1.8 0.55,0.6 4.06251,3.84005 5.9025,0.44753 1.3826,-2.5492 1.73249,-11.35251 1.73249,-11.35251 0,0 5.82519,7.5904 5.53502,12.20248 -0.36669,5.82816 -4.42002,8.8525 -4.42002,8.8525 4.65,5.75 8.85,11.55 12.55,17.3 0.4,0.65 0.85,1.3 1.25,1.95 1.8,2.9 11.40027,0.0631 15.645,-3.14249 6.10544,-4.61079 10.505,-20.40751 10.505,-20.40751 0,0 8.55,24.4 -0.4,42 -4.3,8.5 -9.55,15.7 -8.8,18.1 0.2,0.65 0.4,1.25 0.55,1.9 1.35,4.65 2.4,9.2 3.15,13.7 l 0.3,1.8 c 0.45,3.15 -2.37258,-2.36504 17.8525,-2.27252 17.57005,0.97752 20.035,-21.44504 20.035,-21.44504 0,0 -1.41956,40.29565 -19.3375,58.06756 -8.07282,8.00703 -14.71495,13.98249 -27.15,20.65 -0.45,0.8 -0.95,1.6 -1.4,2.4 -11.45,18.4 -31.25,30.7 -57.8,32.9 20.5,-9.9 32,-22.55 36,-36 0.65,-2.1 -5.4,8.1 -22.4,0.9 -0.6,-0.25 6.64707,-5.54982 10.3,-7.85 4.1819,-2.63328 9.61249,0.18249 13.2,-6.75 3.70251,-6.53752 1.6,-13.08501 1.6,-13.08501 0,0 -0.545,4.0975 -3.2,4.83501 -2.21609,0.61558 -6.55,6.2 -6.3,5.55 0.2,-0.4 0.35,-0.85 0.55,-1.3 1.25,-3.15 2.35,-6.85 3.3,-11.2 3.05,-13.8 0.40001,-30.19505 0.40001,-30.19505 0,0 -8.83232,17.46748 -18.36004,17.86006 -5.54422,0.22844 -7.64994,2.44245 -7.64994,2.44245 0,0 6.20997,-13.75746 6.40997,-29.70746 0.1,-14.55 -11.3,-24.35 -27.5,-39.5 z"
   style="fill:url(#path1_1_);stroke-width:0.5" />
		</g>
	</g>
</g>
</svg>
